<svg width="24" height="24" viewBox="0 0 24 24" fill="none" xmlns="http://www.w3.org/2000/svg">
<g clip-path="url(#clip0_2_11)">
<g filter="url(#filter0_d_2_11)">
<path d="M14.83 6.3C14.09 6.27 13.87 6.26 12 6.26C10.13 6.26 9.91 6.27 9.17 6.3C7.27 6.39 6.39 7.29 6.3 9.17C6.27 9.91 6.26 10.13 6.26 12C6.26 13.87 6.27 14.09 6.3 14.83C6.39 16.71 7.27 17.61 9.17 17.7C9.91 17.73 10.13 17.74 12 17.74C13.87 17.74 14.09 17.73 14.83 17.7C16.73 17.61 17.61 16.71 17.7 14.83C17.73 14.09 17.74 13.87 17.74 12C17.74 10.13 17.73 9.91 17.7 9.17C17.61 7.29 16.73 6.39 14.83 6.3V6.3ZM12 15.59C10.02 15.59 8.41 13.99 8.41 12C8.41 10.02 10.02 8.41 12 8.41C13.98 8.41 15.59 10.02 15.59 12C15.59 13.98 13.98 15.59 12 15.59ZM15.74 9.1C15.27 9.1 14.9 8.73 14.9 8.26C14.9 7.8 15.27 7.42 15.74 7.42C16.2 7.42 16.58 7.8 16.58 8.26C16.58 8.73 16.2 9.1 15.74 9.1V9.1ZM14.33 12C14.33 13.29 13.29 14.33 12 14.33C10.71 14.33 9.67 13.29 9.67 12C9.67 10.71 10.71 9.67 12 9.67C13.29 9.67 14.33 10.71 14.33 12ZM12 0C5.37 0 0 5.37 0 12C0 18.63 5.37 24 12 24C18.63 24 24 18.63 24 12C24 5.37 18.63 0 12 0ZM18.96 14.89C18.84 17.43 17.43 18.84 14.89 18.96C14.14 18.99 13.9 19 12 19C10.1 19 9.86 18.99 9.11 18.96C6.57 18.84 5.16 17.43 5.04 14.89C5.01 14.14 5 13.9 5 12C5 10.1 5.01 9.86 5.04 9.11C5.16 6.57 6.57 5.16 9.11 5.04C9.86 5.01 10.1 5 12 5C13.9 5 14.14 5.01 14.89 5.04C17.43 5.16 18.84 6.58 18.96 9.11C18.99 9.86 19 10.1 19 12C19 13.9 18.99 14.14 18.96 14.89Z" fill="#F0F8FF"/>
</g>
</g>
<defs>
<filter id="filter0_d_2_11" x="-4" y="0" width="32" height="32" filterUnits="userSpaceOnUse" color-interpolation-filters="sRGB">
<feFlood flood-opacity="0" result="BackgroundImageFix"/>
<feColorMatrix in="SourceAlpha" type="matrix" values="0 0 0 0 0 0 0 0 0 0 0 0 0 0 0 0 0 0 127 0" result="hardAlpha"/>
<feOffset dy="4"/>
<feGaussianBlur stdDeviation="2"/>
<feComposite in2="hardAlpha" operator="out"/>
<feColorMatrix type="matrix" values="0 0 0 0 0 0 0 0 0 0 0 0 0 0 0 0 0 0 0.25 0"/>
<feBlend mode="normal" in2="BackgroundImageFix" result="effect1_dropShadow_2_11"/>
<feBlend mode="normal" in="SourceGraphic" in2="effect1_dropShadow_2_11" result="shape"/>
</filter>
<clipPath id="clip0_2_11">
<rect width="24" height="24" fill="white"/>
</clipPath>
</defs>
</svg>
