<svg width="24" height="24" viewBox="0 0 24 24" fill="none" xmlns="http://www.w3.org/2000/svg">
<g clip-path="url(#clip0_2_14)">
<path d="M12 0C5.37 0 0 5.37 0 12C0 18.63 5.37 24 12 24C18.63 24 24 18.63 24 12C24 5.37 18.63 0 12 0ZM10 16H8V10H10V16ZM9 9.11C8.39 9.11 7.9 8.61 7.9 8C7.9 7.39 8.39 6.89 9 6.89C9.61 6.89 10.1 7.39 10.1 8C10.1 8.61 9.61 9.11 9 9.11ZM17 16H15V13.14C15 11.26 13 11.42 13 13.14V16H11V10H13V11.09C13.87 9.48 17 9.36 17 12.64V16Z" fill="#F0F8FF"/>
</g>
<defs>
<clipPath id="clip0_2_14">
<rect width="24" height="24" fill="white"/>
</clipPath>
</defs>
</svg>
