<svg width="1000" height="1000" viewBox="0 0 1000 1000" fill="none" xmlns="http://www.w3.org/2000/svg">
<path d="M363 356.8C420 329.5 440 256 440 256C440 256 456 304.3 417 354C370.3 413.4 355.5 446.7 354 488.8C352.2 540 444 647.8 444 647.8C262.5 541.7 268.3 409.1 306 362.8C322 343.2 412.5 248.8 432 196.3C441 311.8 306 384.2 363 356.8V356.8ZM478 782H406L409 743L316 712C316 712 209.7 578 208 561C205.3 533 288.4 610.5 303.9 623.7C334.4 649.8 413.5 678.8 476 697L478 782Z" fill="#F0F8FF"/>
<path fill-rule="evenodd" clip-rule="evenodd" d="M536 699L678 640C678 640 749.1 600.6 776 574C802.9 547.4 805 566 805 566L698 711L610 740L609 785H535L536 699ZM519 630C507.3 641.1 505.9 656.3 489 655C472.1 653.7 359.1 545.7 378 464C388.9 416.8 440.3 378.8 453 337C465.7 295.2 447.4 247.9 495 212C535.4 181.6 563.4 196 563.4 196C563.4 196 526.6 216.5 531 249C537.8 299.2 545 317.6 594 394C640.5 466.4 627.4 496.7 617 546C606.6 595.3 548.8 655.7 508.3 658.2C508.3 658.2 517.6 644.5 519 630ZM567 647C567 647 644.6 598 643 481C641.8 393.6 588.1 351.9 550.6 272C544.2 258.4 540.2 199.2 587.4 198.4C587.4 198.4 569 208 570 240C570.6 257 577.8 285.2 599 309C620.2 332.8 667.2 410.5 671 448C674.6 483.3 686.9 530.6 643 597C608.2 649.7 567 647 567 647ZM625.8 271.2C668.2 336 718.2 406.3 717 482.5C715.4 580.9 626.6 629.7 626.6 629.7C626.6 629.7 697.8 562.5 692 466C689.1 418.4 669 378.4 617 299C565 219.6 622.6 212.8 622.6 212.8C601.8 237.6 617.8 259.1 625.8 271.2V271.2ZM389.2 472C380.6 540.7 456.3 567.1 506.6 565.7C518 565.3 617.8 567.6 617.6 481.3C617.4 395.1 500 399.7 500 399.7C500.9 399.4 398.5 397 389.2 472V472Z" fill="#F0F8FF"/>
</svg>
