<svg width="24" height="24" viewBox="0 0 24 24" fill="none" xmlns="http://www.w3.org/2000/svg">
<path d="M16 17.24C18.5 16.94 20.69 15.4 21 13.99C21.2795 12.1971 21.4133 10.3845 21.4 8.57C21.33 4.23 18.48 3 18.48 3C16.4015 2.26464 14.2035 1.92545 12 2C9.79648 1.92545 7.59852 2.26464 5.51999 3C5.51999 3 2.67999 4.23 2.67999 8.57V12.01C2.77999 16.25 3.45999 20.43 7.37999 21.47C8.88222 21.8902 10.4416 22.0691 12 22C13.2221 21.9676 14.4254 21.6923 15.54 21.19L15.47 19.55C14.3433 19.8775 13.1729 20.0293 12 20C10.2 19.94 8.28999 19.81 7.99999 17.6C7.98444 17.3903 7.98444 17.1797 7.99999 16.97C9.31463 17.2685 10.6533 17.4492 12 17.51C13.3386 17.5336 14.6767 17.4433 16 17.24V17.24ZM9.45999 7.44C8.55999 7.44 8.10999 7.98 8.10999 9.06V14.16H5.99999V8.9C5.95042 7.97502 6.24222 7.06404 6.81999 6.34C7.09428 6.01838 7.43667 5.76179 7.82236 5.58884C8.20806 5.41588 8.62739 5.33088 9.04999 5.34C9.52305 5.31461 9.99438 5.41506 10.416 5.63113C10.8376 5.8472 11.1944 6.17115 11.45 6.57L11.97 7.44L12.49 6.57C12.7456 6.17115 13.1024 5.8472 13.524 5.63113C13.9456 5.41506 14.4169 5.31461 14.89 5.34C15.3126 5.33088 15.7319 5.41588 16.1176 5.58884C16.5033 5.76179 16.8457 6.01838 17.12 6.34C17.7193 7.05544 18.0328 7.96729 18 8.9V14.16H15.89V9.06C15.89 7.98 15.44 7.44 14.54 7.44C13.54 7.44 13.03 8.08 13.03 9.36V12.15H11V9.36C11 8.08 10.46 7.44 9.45999 7.44V7.44Z" fill="#F0F8FF"/>
</svg>
