<?xml version="1.0" encoding="UTF-8" standalone="no" ?>
<!DOCTYPE svg PUBLIC "-//W3C//DTD SVG 1.1//EN" "http://www.w3.org/Graphics/SVG/1.1/DTD/svg11.dtd">
<svg xmlns="http://www.w3.org/2000/svg" xmlns:xlink="http://www.w3.org/1999/xlink" version="1.1" width="1080" height="1080" viewBox="0 0 1080 1080" xml:space="preserve">
<desc>Created with Fabric.js 5.2.4</desc>
<defs>
</defs>
<rect x="0" y="0" width="100%" height="100%" fill="transparent"></rect>
<g transform="matrix(1 0 0 1 540 540)" id="ba947d96-e013-4be8-80b5-8fd8af16b4e8"  >
</g>
<g transform="matrix(1 0 0 1 540 540)" id="886bcb34-ceda-41e1-8c64-648be2621b60"  >
<rect style="stroke: none; stroke-width: 1; stroke-dasharray: none; stroke-linecap: butt; stroke-dashoffset: 0; stroke-linejoin: miter; stroke-miterlimit: 4; fill: rgb(255,255,255); fill-rule: nonzero; opacity: 1; visibility: hidden;" vector-effect="non-scaling-stroke"  x="-540" y="-540" rx="0" ry="0" width="1080" height="1080" />
</g>
<g transform="matrix(1 0 0 1 540 540)"  >
<path style="stroke: rgb(221,221,221); stroke-width: 0; stroke-dasharray: none; stroke-linecap: butt; stroke-dashoffset: 0; stroke-linejoin: miter; stroke-miterlimit: 4; fill: rgb(221,221,221); fill-rule: nonzero; opacity: 1;" vector-effect="non-scaling-stroke"  transform=" translate(-165, -165)" d="M 100.606 100.606 L 150 51.212 L 150 315 C 150 323.284 156.716 330 165 330 C 173.284 330 180 323.284 180 315 L 180 51.212 L 229.394 100.606 C 232.322 103.535 236.161 105 240 105 C 243.839 105 247.678 103.535 250.606 100.606 C 256.464 94.749 256.464 85.25099999999999 250.606 79.393 L 175.606 4.393000000000001 C 169.749 -1.464999999999999 160.251 -1.464999999999999 154.393 4.393000000000001 L 79.393 79.393 C 73.535 85.25 73.535 94.748 79.393 100.606 C 85.251 106.463 94.749 106.463 100.606 100.606 z" stroke-linecap="round" />
</g>
</svg>