<svg width="24" height="24" viewBox="0 0 24 24" fill="none" xmlns="http://www.w3.org/2000/svg">
<g clip-path="url(#clip0_2_17)">
<path fill-rule="evenodd" clip-rule="evenodd" d="M12 0C5.37 0 0 5.37 0 12C0 18.63 5.37 24 12 24C18.63 24 24 18.63 24 12C24 5.37 18.63 0 12 0ZM15.22 17.87C15.41 18 15.65 18.04 15.87 17.96C16.09 17.87 16.24 17.69 16.29 17.46C16.8 15.08 18.03 9.05 18.49 6.89C18.53 6.72 18.47 6.55 18.34 6.44C18.21 6.34 18.03 6.3 17.87 6.36C15.43 7.27 7.9 10.09 4.82 11.23C4.62 11.31 4.49 11.49 4.5 11.7C4.51 11.91 4.65 12.09 4.85 12.15C6.23 12.56 8.04 13.13 8.04 13.13C8.04 13.13 8.89 15.69 9.33 16.99C9.38 17.16 9.51 17.28 9.68 17.33C9.85 17.37 10.03 17.32 10.15 17.21C10.86 16.54 11.96 15.5 11.96 15.5C11.96 15.5 14.04 17.03 15.22 17.87V17.87ZM8.8 12.81L9.78 16.04L10 13.99C10 13.99 13.78 10.58 15.94 8.64C16 8.58 16.01 8.48 15.96 8.42C15.91 8.35 15.81 8.33 15.74 8.38C13.24 9.97 8.8 12.81 8.8 12.81Z" fill="#F0F8FF"/>
</g>
<defs>
<clipPath id="clip0_2_17">
<rect width="24" height="24" fill="white"/>
</clipPath>
</defs>
</svg>
